<?xml version="1.0" encoding="utf-8"?>
<!-- Generator: Adobe Illustrator 26.5.0, SVG Export Plug-In . SVG Version: 6.00 Build 0)  -->
<svg version="1.1" xmlns="http://www.w3.org/2000/svg" xmlns:xlink="http://www.w3.org/1999/xlink" x="0px" y="0px"
	 viewBox="0 0 500 500" style="enable-background:new 0 0 500 500;" xml:space="preserve">
<style type="text/css">
	.st0{fill:#FFFFFF;}
	.st1{opacity:0.5;fill:url(#SVGID_1_);}
	.st2{fill:url(#SVGID_00000103949805579018165850000009029349994140345260_);}
	.st3{fill:url(#SVGID_00000116946002073657076100000007070659399259690380_);}
	.st4{fill:url(#SVGID_00000084496540234473476620000007027340281511777186_);}
	.st5{fill:url(#SVGID_00000093858418739035976770000003842415138726759041_);}
	.st6{fill:url(#SVGID_00000170978232483042747190000010299991718184698280_);}
	.st7{fill:url(#SVGID_00000158027634161171218180000015867797522523663024_);}
</style>
<g id="BACKGROUND">
	<rect class="st0" width="500" height="500"/>
</g>
<g id="OBJECTS">
	<g>
		<g>
			
				<radialGradient id="SVGID_1_" cx="257.1703" cy="386.6914" r="104.126" gradientTransform="matrix(1 0 0 0.105 0 373.1861)" gradientUnits="userSpaceOnUse">
				<stop  offset="2.477800e-04" style="stop-color:#000000"/>
				<stop  offset="1" style="stop-color:#FFFFFF;stop-opacity:0"/>
			</radialGradient>
			<ellipse class="st1" cx="257.17" cy="413.77" rx="125.39" ry="13.38"/>
			<g>
				
					<linearGradient id="SVGID_00000090252917041492047180000009821878197960820609_" gradientUnits="userSpaceOnUse" x1="167.3936" y1="54.6804" x2="255.7509" y2="197.1074" gradientTransform="matrix(0.9877 -0.1565 0.1565 0.9877 -28.6877 41.6722)">
					<stop  offset="4.955700e-04" style="stop-color:#00945C"/>
					<stop  offset="1" style="stop-color:#6EFFA9"/>
				</linearGradient>
				<path style="fill:url(#SVGID_00000090252917041492047180000009821878197960820609_);" d="M271.56,181.84
					C152.32,199.37,119.7,85.89,119.7,85.89c3.38-0.82,6.67-1.55,9.9-2.15c86.1-16.63,121.06,37,134.39,71.43
					C269.9,170.38,271.56,181.84,271.56,181.84z"/>
				
					<linearGradient id="SVGID_00000103976620356813479940000004229371174124909705_" gradientUnits="userSpaceOnUse" x1="289.4509" y1="186.7761" x2="354.9861" y2="105.7675" gradientTransform="matrix(0.9877 -0.1565 0.1565 0.9877 -28.6877 41.6722)">
					<stop  offset="2.477800e-04" style="stop-color:#006994"/>
					<stop  offset="1" style="stop-color:#6EFFA9"/>
				</linearGradient>
				<path style="fill:url(#SVGID_00000103976620356813479940000004229371174124909705_);" d="M357.02,72.85
					c0.63,5.1,0.92,9.99,0.93,14.65c0.13,73.14-71.84,92.04-71.84,92.04C265.1,84.08,357.02,72.85,357.02,72.85z"/>
				
					<linearGradient id="SVGID_00000097487959638140645540000016845005658155602575_" gradientUnits="userSpaceOnUse" x1="156.3152" y1="348.0466" x2="371.1147" y2="171.474" gradientTransform="matrix(0.9877 -0.1565 0.1565 0.9877 -28.6877 41.6722)">
					<stop  offset="0" style="stop-color:#FD00FF"/>
					<stop  offset="1" style="stop-color:#FBB216"/>
				</linearGradient>
				<path style="fill:url(#SVGID_00000097487959638140645540000016845005658155602575_);" d="M401.05,174
					c-2.21-1.96-5.18-2.81-8.11-2.35l-230.7,36.55l-3.13-10.61c-1.41-4.79-6.14-7.8-11.1-7.02l-44.09,6.99
					c-5.42,0.86-9.11,5.96-8.25,11.38c0.86,5.42,5.94,9.13,11.36,8.27l35.47-5.62l3.06,10.43c0.04,0.12,0.08,0.23,0.12,0.35
					l33.03,112.55c0.02,0,0.02,0,0.02,0.02c0,0,0,0,0,0.02l11.65,39.01c1.43,4.79,6.16,7.76,11.09,6.98l21.89-3.47
					c-0.87,3.81-1.05,7.84-0.4,11.91c1.61,10.14,7.91,18.42,16.34,22.94c5.83,3.12,12.72,4.45,19.79,3.33
					c17.21-2.73,28.99-18.95,26.26-36.15c-0.64-4.07-2.09-7.84-4.09-11.2l43.58-6.91c-0.87,3.81-1.05,7.84-0.4,11.91
					c2.73,17.21,18.95,28.99,36.13,26.27c17.21-2.73,28.99-18.95,26.26-36.15c-0.64-4.07-2.09-7.84-4.09-11.2l10.08-1.6
					c5.42-0.86,9.13-5.94,8.27-11.38c-0.86-5.42-5.96-9.11-11.38-8.25l-182.77,28.96l-5.92-19.79l191.9-30.4
					c4.72-0.75,8.24-4.76,8.36-9.56l3.15-118.45C404.51,178.77,403.28,175.93,401.05,174z M353.8,356.8
					c6.39-1.01,12.4,3.35,13.41,9.72c1.01,6.39-3.35,12.4-9.74,13.41c-6.37,1.01-12.38-3.36-13.39-9.75
					C343.07,363.82,347.43,357.81,353.8,356.8z M249.55,373.69c0.87-0.38,1.8-0.65,2.77-0.81c6.39-1.01,12.4,3.35,13.41,9.72
					c1.01,6.39-3.35,12.4-9.74,13.41c-4.53,0.72-8.89-1.29-11.38-4.81c-1.02-1.42-1.72-3.1-2.01-4.93
					C241.74,380.87,244.73,375.75,249.55,373.69z M298.32,280.45c-0.99,0.96-2.96,1.66-5.85,2.12c-2.61,0.41-5.27,0.58-7.93,0.46
					c-1.18-0.05-2.36-0.15-3.55-0.3c-1.7-0.23-5.45-1.12-9.36-2.17c-6.66-1.8-13.54,1.97-15.59,8.57c-0.6,1.93-0.72,3.9-0.43,5.77
					c0.8,5.02,4.59,9.34,9.92,10.51c3.36,0.74,6.39,1.32,7.87,1.5c0.09,0.01,0.18,0.02,0.26,0.02c2.4,0.25,4.79,0.39,7.16,0.44
					l-85.5,13.55l-27.46-93.48l99.31-15.73c-0.69,0.3-1.37,0.61-2.01,0.92c-4.1,2.1-7.59,4.77-10.51,8
					c-2.92,3.25-5.02,7.06-6.31,11.44c-1.31,4.4-1.54,9.26-0.69,14.59c0.56,3.54,1.54,6.59,2.92,9.13c1.38,2.57,3.24,4.76,5.56,6.58
					c2.32,1.82,5.17,3.31,8.52,4.51c3.34,1.18,7.26,2.16,11.73,2.94c3.07,0.53,5.94,0.96,8.63,1.27c1.83,0.23,3.55,0.45,5.1,0.7
					c0.73,0.12,1.42,0.25,2.09,0.38c2.12,0.42,3.81,1,5.08,1.77c1.29,0.77,2.04,1.84,2.26,3.21
					C299.75,278.41,299.34,279.51,298.32,280.45z M381.63,291.39l-73.06,11.58c0.1-0.04,0.19-0.05,0.27-0.09
					c4.24-1.75,7.89-4.06,11.02-6.98c3.1-2.91,5.41-6.5,6.92-10.76c1.5-4.28,1.79-9.32,0.87-15.12c-0.71-4.51-2-8.26-3.85-11.21
					c-1.87-2.95-4.24-5.34-7.12-7.15c-2.88-1.81-6.25-3.27-10.09-4.32c-0.93-0.26-1.89-0.5-2.86-0.74
					c-3.05-0.73-6.33-1.35-9.87-1.85c-2.94-0.44-5.58-0.82-7.89-1.11c-2.34-0.28-4.32-0.63-5.94-1.07c-1.67-0.45-2.95-1-3.9-1.69
					c-0.95-0.67-1.52-1.66-1.72-2.93c-0.27-1.73,0.23-3.04,1.53-4c1.28-0.94,3.1-1.59,5.46-1.97c2.89-0.46,5.94-0.46,9.12,0
					c1.29,0.21,3.96,0.82,6.88,1.57c6.24,1.6,12.64-1.92,14.68-8.01c0.64-1.94,0.78-3.93,0.49-5.8c-0.75-4.74-4.26-8.86-9.29-10.05
					c-1.78-0.43-3.3-0.75-4.19-0.91c-2.6-0.43-5.26-0.7-7.96-0.88l93.11-14.75L381.63,291.39z"/>
				
					<linearGradient id="SVGID_00000031176385656298363870000010939920568318052757_" gradientUnits="userSpaceOnUse" x1="233.8472" y1="244.9067" x2="364.9472" y2="351.3553" gradientTransform="matrix(0.9877 -0.1565 0.1565 0.9877 -28.6877 41.6722)">
					<stop  offset="2.477800e-04" style="stop-color:#FFFFFF"/>
					<stop  offset="1" style="stop-color:#FFFFFF;stop-opacity:0"/>
				</linearGradient>
				<path style="fill:url(#SVGID_00000031176385656298363870000010939920568318052757_);" d="M389.72,330.99L256.44,352.1
					c-2.39,7.01-4.67,14.21-6.89,21.58c0.87-0.38,1.8-0.65,2.77-0.81c6.39-1.01,12.4,3.35,13.41,9.72
					c1.01,6.39-3.35,12.4-9.74,13.41c-4.53,0.72-8.89-1.29-11.38-4.81c-1.87,6.89-3.63,13.93-5.3,21.11
					c5.83,3.12,12.72,4.45,19.79,3.33c17.21-2.73,28.99-18.95,26.26-36.15c-0.64-4.07-2.09-7.84-4.09-11.2l43.58-6.91
					c-0.87,3.81-1.05,7.84-0.4,11.91c2.73,17.21,18.95,28.99,36.13,26.27c17.21-2.73,28.99-18.95,26.26-36.15
					c-0.64-4.07-2.09-7.84-4.09-11.2l10.08-1.6c5.42-0.86,9.13-5.94,8.27-11.38C400.24,333.82,395.14,330.13,389.72,330.99z
					 M357.47,379.93c-6.37,1.01-12.38-3.36-13.39-9.75c-1.01-6.37,3.36-12.38,9.72-13.39c6.39-1.01,12.4,3.35,13.41,9.72
					C368.22,372.91,363.86,378.92,357.47,379.93z M401.05,174c-2.21-1.96-5.18-2.81-8.11-2.35l-42.51,6.73
					c-5.5,6.73-11.43,14.37-17.55,22.9l51.36-8.14l-2.61,98.24l-73.06,11.58c0.1-0.04,0.19-0.05,0.27-0.09
					c4.24-1.75,7.89-4.06,11.02-6.98c3.1-2.91,5.41-6.5,6.92-10.76c1.5-4.28,1.79-9.32,0.87-15.12c-0.71-4.51-2-8.26-3.85-11.21
					c-1.87-2.95-4.24-5.34-7.12-7.15c-2.88-1.81-6.25-3.27-10.09-4.32c-0.93-0.26-1.89-0.5-2.86-0.74
					c-4.56,7.94-9.13,16.34-13.61,25.18c0.73,0.12,1.42,0.25,2.09,0.38c2.12,0.42,3.81,1,5.08,1.77c1.29,0.77,2.04,1.84,2.26,3.21
					c0.2,1.27-0.21,2.37-1.23,3.31c-0.99,0.96-2.96,1.66-5.85,2.12c-2.61,0.41-5.27,0.58-7.93,0.46
					c-3.69,7.65-7.32,15.62-10.87,23.9c-0.24,0.56-0.49,1.14-0.73,1.69c-2.94,6.95-5.83,14.11-8.65,21.52l128.62-20.38
					c4.72-0.75,8.24-4.76,8.36-9.56l3.15-118.45C404.51,178.77,403.28,175.93,401.05,174z"/>
				
					<linearGradient id="SVGID_00000008147715855603323970000009607436034059541404_" gradientUnits="userSpaceOnUse" x1="265.0302" y1="158.0673" x2="182.1457" y2="84.9783" gradientTransform="matrix(0.9877 -0.1565 0.1565 0.9877 -28.6877 41.6722)">
					<stop  offset="2.477800e-04" style="stop-color:#FFFFFF"/>
					<stop  offset="1" style="stop-color:#FFFFFF;stop-opacity:0"/>
				</linearGradient>
				<path style="fill:url(#SVGID_00000008147715855603323970000009607436034059541404_);" d="M263.99,155.17
					c-91.27,10.29-124.37-46.52-134.39-71.43C215.71,67.11,250.67,120.74,263.99,155.17z"/>
				
					<linearGradient id="SVGID_00000005259782435981111140000018234148705276854946_" gradientUnits="userSpaceOnUse" x1="374.0849" y1="102.5406" x2="292.7256" y2="190.8242" gradientTransform="matrix(0.9877 -0.1565 0.1565 0.9877 -28.6877 41.6722)">
					<stop  offset="2.477800e-04" style="stop-color:#FFFFFF"/>
					<stop  offset="1" style="stop-color:#FFFFFF;stop-opacity:0"/>
				</linearGradient>
				<path style="fill:url(#SVGID_00000005259782435981111140000018234148705276854946_);" d="M357.95,87.5
					c0.13,73.14-71.84,92.04-71.84,92.04S287.78,116.88,357.95,87.5z"/>
			</g>
		</g>
	</g>
</g>
</svg>
